<svg width="29" height="29" viewBox="0 0 29 29" fill="none" xmlns="http://www.w3.org/2000/svg">
<path d="M20.2528 14.2788C20.2528 14.8976 20.4986 15.4911 20.9362 15.9287C21.3738 16.3663 21.9673 16.6121 22.5861 16.6121C23.2049 16.6121 23.7984 16.3663 24.236 15.9287C24.6736 15.4911 24.9194 14.8976 24.9194 14.2788C24.9193 11.8738 24.0936 9.54172 22.5803 7.67249C21.067 5.80326 18.9579 4.51017 16.6057 4.00943C14.2534 3.50868 11.8005 3.83063 9.65706 4.92144C7.51366 6.01225 5.80969 7.80581 4.83004 10.0022C3.85038 12.1987 3.65443 14.6648 4.27494 16.9884C4.89546 19.312 6.29482 21.3521 8.23907 22.7677C10.1833 24.1833 12.5546 24.8886 14.9565 24.7656C17.3583 24.6426 19.6451 23.6988 21.4346 22.092" stroke="#14EFFF" stroke-width="1.8" stroke-linecap="round" stroke-linejoin="round"/>
<path d="M8.58594 14.2786C8.58594 15.8257 9.20052 17.3095 10.2945 18.4034C11.3884 19.4974 12.8722 20.112 14.4193 20.112C15.9664 20.112 17.4501 19.4974 18.5441 18.4034C19.638 17.3095 20.2526 15.8257 20.2526 14.2786C20.2526 12.7315 19.638 11.2478 18.5441 10.1539C17.4501 9.05989 15.9664 8.44531 14.4193 8.44531C12.8722 8.44531 11.3884 9.05989 10.2945 10.1539C9.20052 11.2478 8.58594 12.7315 8.58594 14.2786Z" stroke="#14EFFF" stroke-width="1.8" stroke-linecap="round" stroke-linejoin="round"/>
<path d="M13.2529 14.279C13.2529 14.5884 13.3758 14.8851 13.5946 15.1039C13.8134 15.3227 14.1102 15.4456 14.4196 15.4456C14.729 15.4456 15.0258 15.3227 15.2446 15.1039C15.4633 14.8851 15.5863 14.5884 15.5863 14.279C15.5863 13.9696 15.4633 13.6728 15.2446 13.454C15.0258 13.2352 14.729 13.1123 14.4196 13.1123C14.1102 13.1123 13.8134 13.2352 13.5946 13.454C13.3758 13.6728 13.2529 13.9696 13.2529 14.279Z" stroke="#14EFFF" stroke-width="1.8" stroke-linecap="round" stroke-linejoin="round"/>
<path d="M13.2529 14.279C13.2529 14.5884 13.3758 14.8851 13.5946 15.1039C13.8134 15.3227 14.1102 15.4456 14.4196 15.4456C14.729 15.4456 15.0258 15.3227 15.2446 15.1039C15.4633 14.8851 15.5863 14.5884 15.5863 14.279C15.5863 13.9696 15.4633 13.6728 15.2446 13.454C15.0258 13.2352 14.729 13.1123 14.4196 13.1123C14.1102 13.1123 13.8134 13.2352 13.5946 13.454C13.3758 13.6728 13.2529 13.9696 13.2529 14.279Z" stroke="#14EFFF" stroke-width="1.8" stroke-linecap="round" stroke-linejoin="round"/>
</svg>
