<svg width="25" height="25" viewBox="0 0 25 25" fill="none" xmlns="http://www.w3.org/2000/svg">
<g clip-path="url(#clip0_111_2327)">
<path d="M24.7324 16.4033C24.7324 18.6814 23.4675 20.5283 20.9824 20.5283H4.48242C1.9973 20.5283 0.732422 18.6814 0.732422 16.4033V8.15332C0.732422 5.8752 1.9973 4.02832 4.48242 4.02832H20.9824C23.4675 4.02832 24.7324 5.8752 24.7324 8.15332V16.4033Z" fill="#128807"/>
<path d="M22.1599 12.5743L12.7886 19.1593L3.41699 12.5743L12.7886 5.98926L22.1599 12.5743Z" fill="#F9CB38"/>
<path fill-rule="evenodd" clip-rule="evenodd" d="M16.4863 13.7217C16.0595 15.1718 14.7241 16.2758 13.2121 16.4258C11.192 16.6279 9.42465 15.3439 8.9949 13.3591C8.86769 12.7758 8.8839 12.1703 9.04215 11.5947C9.10102 11.5309 9.1824 11.5156 9.2634 11.5043C9.8542 11.4217 10.4515 11.3957 11.0473 11.4267C11.6829 11.4627 12.3133 11.5508 12.926 11.7241C13.5549 11.9022 14.1639 12.1347 14.7388 12.4437C15.1715 12.6734 15.5847 12.938 15.9744 13.2349C16.1064 13.3373 16.241 13.4378 16.3678 13.5469C16.4244 13.5957 16.469 13.6482 16.4863 13.7217Z" fill="#002776"/>
<path fill-rule="evenodd" clip-rule="evenodd" d="M9.25391 11.0076C9.73803 9.92577 10.5544 9.2054 11.6828 8.86715C13.9553 8.18577 16.2867 9.68765 16.6245 12.0299C16.677 12.3918 16.6793 12.7548 16.6238 13.1174C16.5664 13.1388 16.5237 13.1084 16.4843 13.0758C16.0724 12.7392 15.633 12.4379 15.1707 12.175C14.8147 11.973 14.4447 11.7965 14.0637 11.647C13.9962 11.6204 13.9114 11.6065 13.8882 11.5161C13.9125 11.4726 13.9433 11.4348 13.98 11.3995C13.9932 11.386 14.0123 11.3729 13.9947 11.3504C13.9887 11.3433 13.9763 11.3433 13.9658 11.3444C13.9377 11.3474 13.9414 11.3669 13.9425 11.3875C13.9448 11.4546 13.9058 11.4978 13.8544 11.5323C13.7633 11.5529 13.6759 11.5255 13.602 11.4861C13.3905 11.3751 13.1565 11.3373 12.9327 11.2754C12.5835 11.1805 12.225 11.1269 11.8673 11.071C11.5818 11.0255 11.2943 10.9927 11.0059 10.9728C10.7434 10.9544 10.476 10.957 10.2117 10.975C9.92328 10.9953 9.63416 11.0155 9.34728 11.05C9.32928 11.0528 9.31087 11.0503 9.29429 11.0427C9.2777 11.0352 9.26367 11.023 9.25391 11.0076Z" fill="#002776"/>
<path fill-rule="evenodd" clip-rule="evenodd" d="M13.8915 11.4931C13.89 11.5388 13.9309 11.5328 13.9556 11.5426C14.924 11.9193 15.8246 12.4512 16.6219 13.1176C16.599 13.3234 16.5535 13.526 16.4861 13.7217C16.017 13.3325 15.5366 12.9616 15.0052 12.6586C13.3256 11.702 11.5271 11.3228 9.60449 11.5261C9.41699 11.5452 9.22949 11.5707 9.04199 11.5936C9.09037 11.3907 9.15187 11.1916 9.25274 11.0071C10.6564 10.8177 12.0356 10.9253 13.389 11.3442C13.557 11.3963 13.7171 11.4803 13.8964 11.4961L13.8915 11.492" fill="#FEFEFE"/>
<path fill-rule="evenodd" clip-rule="evenodd" d="M15.639 13.9093C15.5261 13.8973 15.6487 14.0357 15.5347 14.0327C15.4353 14.0312 15.4301 13.9517 15.3813 13.9074C15.4188 13.8684 15.4852 13.8606 15.5062 13.7998C15.5205 13.8639 15.5808 13.8774 15.639 13.9093Z" fill="#D9DFEA"/>
<path fill-rule="evenodd" clip-rule="evenodd" d="M11.3803 14.6035C11.2742 14.6159 11.3631 14.7314 11.2742 14.7333C11.1846 14.7351 11.1385 14.6688 11.1205 14.6001C11.1141 14.5806 11.2003 14.5371 11.2427 14.5049C11.248 14.5728 11.3185 14.5698 11.3803 14.6035Z" fill="#E9ECF3"/>
<path fill-rule="evenodd" clip-rule="evenodd" d="M12.785 14.3949C12.6377 14.4901 12.7565 14.2749 12.6699 14.2959C12.698 14.2509 12.7775 14.2614 12.7828 14.1924C12.8203 14.2314 12.8522 14.2764 12.9118 14.2846C12.8267 14.273 12.9193 14.462 12.785 14.3949Z" fill="#EDEFF5"/>
<path fill-rule="evenodd" clip-rule="evenodd" d="M9.7399 11.8677C9.70465 11.9348 9.67803 12.0098 9.57115 11.9648C9.5164 11.9419 9.5749 11.8669 9.50928 11.8598L9.63078 11.7529L9.65703 11.8051C9.66678 11.8497 9.75565 11.7904 9.7399 11.8677Z" fill="#F0F2F6"/>
<path fill-rule="evenodd" clip-rule="evenodd" d="M10.0801 13.4974C10.0243 13.515 10.0644 13.662 9.94438 13.5979C9.93238 13.5919 9.87988 13.6207 9.88963 13.6039C9.92113 13.5424 9.85063 13.5124 9.8615 13.4632C9.92713 13.4917 9.92338 13.3717 9.9905 13.404C9.99538 13.4077 9.99538 13.4227 9.99875 13.4325C10.0059 13.479 10.0966 13.4209 10.0801 13.4974Z" fill="#ECEFF4"/>
<path fill-rule="evenodd" clip-rule="evenodd" d="M9.49027 13.931C9.37514 13.9712 9.46102 13.832 9.39502 13.8332C9.42577 13.8073 9.46027 13.7589 9.49102 13.7608C9.52777 13.7627 9.56152 13.808 9.59527 13.8339C9.54502 13.8508 9.59789 13.9869 9.49027 13.931Z" fill="#D9DFEA"/>
<path fill-rule="evenodd" clip-rule="evenodd" d="M13.9402 15.2588C13.8183 15.3143 13.9368 15.1504 13.8555 15.1718C13.8472 15.1092 13.9488 15.1471 13.9361 15.0811L14.046 15.1692C14.0013 15.1894 14.046 15.3169 13.9402 15.2588Z" fill="#D8DEEA"/>
<path fill-rule="evenodd" clip-rule="evenodd" d="M14.7198 15.1688C14.619 15.2108 14.6808 15.075 14.6265 15.0615C14.6632 15.0379 14.7018 15.0128 14.7378 14.9884C14.7408 15.0439 14.817 15.0236 14.8252 15.0728C14.7686 15.0761 14.8275 15.1984 14.7198 15.1688ZM15.4211 14.664C15.3063 14.7221 15.3911 14.5695 15.3255 14.5759C15.3386 14.5271 15.414 14.5455 15.4185 14.4893L15.5261 14.5699C15.4605 14.568 15.5411 14.7289 15.4211 14.664Z" fill="#DCE1EC"/>
<path fill-rule="evenodd" clip-rule="evenodd" d="M10.7763 13.9633C10.6563 14.0312 10.7347 13.8793 10.6792 13.8763C10.6848 13.8204 10.7696 13.8444 10.7733 13.7852C10.7846 13.8399 10.8573 13.8242 10.8731 13.8733C10.8014 13.8628 10.9034 14.0349 10.7763 13.9633Z" fill="#D4DAE7"/>
<path fill-rule="evenodd" clip-rule="evenodd" d="M11.2624 12.824C11.1945 12.8195 11.2815 12.7126 11.1982 12.7194C11.2125 12.6594 11.2766 12.6717 11.3119 12.6406C11.3299 12.6785 11.3809 12.6871 11.3835 12.7415C11.3895 12.8409 11.3014 12.7895 11.2624 12.824Z" fill="#F2F4F7"/>
<path fill-rule="evenodd" clip-rule="evenodd" d="M13.2387 13.6165C13.1349 13.6762 13.1896 13.543 13.1416 13.5284L13.2387 13.4463C13.241 13.5018 13.3471 13.4894 13.3171 13.5322C13.2991 13.5577 13.3572 13.6743 13.2387 13.6165Z" fill="#E6E9F1"/>
<path fill-rule="evenodd" clip-rule="evenodd" d="M12.7738 13.2816C12.6553 13.2936 12.7776 13.186 12.7007 13.1886C12.7307 13.1605 12.7596 13.1125 12.7933 13.1095C12.8226 13.1065 12.8563 13.1541 12.8882 13.1804C12.8466 13.2205 12.8529 13.324 12.7738 13.2816Z" fill="#EAEDF3"/>
<path fill-rule="evenodd" clip-rule="evenodd" d="M15.6506 14.1572C15.675 14.2217 15.723 14.2304 15.7605 14.2532C15.7222 14.2964 15.7072 14.3624 15.6277 14.3624C15.5463 14.3631 15.6015 14.3012 15.5831 14.2724C15.5377 14.2004 15.7053 14.2611 15.6506 14.1572Z" fill="#E4E8F0"/>
<path fill-rule="evenodd" clip-rule="evenodd" d="M14.8016 15.4636C14.7731 15.506 14.7926 15.5465 14.7168 15.548C14.6302 15.5495 14.658 15.4861 14.6542 15.4666C14.6471 15.4344 14.6966 15.4036 14.7251 15.41C14.7498 15.4145 14.7978 15.4284 14.8016 15.4636Z" fill="#CED5E4"/>
<path fill-rule="evenodd" clip-rule="evenodd" d="M10.7504 14.2621C10.6885 14.2693 10.7399 14.3503 10.6615 14.3476C10.5899 14.3454 10.6004 14.297 10.5925 14.2678C10.5801 14.2269 10.6405 14.228 10.654 14.1973C10.6825 14.2171 10.7114 14.237 10.7504 14.2621Z" fill="#DAE0EB"/>
<path fill-rule="evenodd" clip-rule="evenodd" d="M14.6338 14.6908C14.6603 14.6713 14.6874 14.6523 14.7152 14.6338C14.7174 14.6754 14.807 14.6514 14.777 14.7047C14.7647 14.726 14.795 14.7845 14.7174 14.7793C14.6477 14.7744 14.6642 14.7257 14.6338 14.6908Z" fill="#D8DEE9"/>
<path fill-rule="evenodd" clip-rule="evenodd" d="M14.3488 14.8195C14.3353 14.8934 14.2933 14.9054 14.2472 14.914C14.1688 14.9272 14.2277 14.8683 14.2149 14.8458C14.1819 14.7895 14.2652 14.8004 14.2749 14.7637C14.2967 14.7922 14.3465 14.7914 14.3488 14.8195Z" fill="#CBD2E3"/>
<path fill-rule="evenodd" clip-rule="evenodd" d="M13.9098 12.3869C13.8836 12.3993 13.9184 12.4619 13.8622 12.4439C13.8194 12.4293 13.7669 12.409 13.7707 12.3565C13.7722 12.3363 13.8232 12.3194 13.8517 12.3018C13.8566 12.3396 13.9376 12.3273 13.9098 12.3869Z" fill="#D1D8E6"/>
<path fill-rule="evenodd" clip-rule="evenodd" d="M16.0321 14.0319C15.9616 14.0596 15.9935 14.0015 15.9811 13.9846C15.9338 13.9205 16.0272 13.9299 16.0321 13.8916C16.061 13.9107 16.1172 13.9325 16.115 13.949C16.1133 13.9704 16.1041 13.9906 16.0889 14.0058C16.0737 14.021 16.0535 14.0302 16.0321 14.0319Z" fill="#DADFEA"/>
<path fill-rule="evenodd" clip-rule="evenodd" d="M12.4065 13.46C12.4065 13.5035 12.4942 13.4862 12.4646 13.5406C12.4526 13.5627 12.4781 13.622 12.4174 13.6096C12.3712 13.6002 12.3247 13.5732 12.3232 13.5275C12.3232 13.5061 12.3765 13.4832 12.4065 13.46Z" fill="#CAD2E2"/>
<path fill-rule="evenodd" clip-rule="evenodd" d="M13.6062 14.8167C13.5717 14.8006 13.5702 14.7552 13.5725 14.7335C13.5762 14.7046 13.6148 14.6656 13.6478 14.6814C13.6681 14.6911 13.7255 14.6855 13.7116 14.738C13.6988 14.7882 13.6486 14.7954 13.6062 14.8167Z" fill="#D0D7E5"/>
<path fill-rule="evenodd" clip-rule="evenodd" d="M15.0576 14.7504C15.0591 14.75 15.0854 14.7137 15.115 14.7129C15.1364 14.7122 15.1581 14.7564 15.181 14.7811C15.1502 14.7898 15.1765 14.8464 15.1157 14.8457C15.061 14.8445 15.061 14.8198 15.0576 14.7504Z" fill="#EFF2F6"/>
<path fill-rule="evenodd" clip-rule="evenodd" d="M12.6446 13.801C12.6345 13.8415 12.6345 13.8666 12.5985 13.8659C12.5617 13.8651 12.5437 13.8516 12.5445 13.8141C12.5445 13.7845 12.564 13.7639 12.5861 13.7657C12.6116 13.7676 12.648 13.7747 12.6446 13.801Z" fill="#CCD4E3"/>
<path fill-rule="evenodd" clip-rule="evenodd" d="M10.3454 13.2178C10.3634 13.2373 10.384 13.2526 10.3919 13.2725C10.3986 13.289 10.3881 13.3141 10.3649 13.3168C10.339 13.319 10.3113 13.3183 10.303 13.286C10.2955 13.2545 10.3229 13.2433 10.3454 13.2178Z" fill="#E0E5EE"/>
<path fill-rule="evenodd" clip-rule="evenodd" d="M10.0799 13.4969C10.0698 13.4538 10.003 13.4811 9.99854 13.4316C10.0128 13.4691 10.1242 13.3855 10.0799 13.4969Z" fill="#7085B1"/>
<path fill-rule="evenodd" clip-rule="evenodd" d="M9.7401 11.8683C9.73185 11.8222 9.66098 11.8585 9.65723 11.8057C9.6771 11.8372 9.7776 11.7625 9.7401 11.8683Z" fill="#5C75A7"/>
<path fill-rule="evenodd" clip-rule="evenodd" d="M13.899 11.4974C13.9061 11.4689 13.929 11.4224 13.92 11.4138C13.7977 11.3051 13.9608 11.2867 13.9852 11.2646C14.0298 11.2214 14.0227 11.4033 14.1405 11.2882C14.0771 11.4288 13.9923 11.4693 13.8948 11.4933L13.899 11.4974Z" fill="#E7EAF2"/>
<path fill-rule="evenodd" clip-rule="evenodd" d="M10.284 11.3808C10.1647 11.3692 10.2709 11.2139 10.245 11.1239C10.2127 11.0077 10.2975 11.0092 10.38 11.0088C10.5079 11.008 10.5802 11.062 10.5802 11.197C10.5799 11.3298 10.5184 11.3823 10.284 11.3808Z" fill="#15A24A"/>
<path fill-rule="evenodd" clip-rule="evenodd" d="M14.8402 12.1298C14.814 12.21 14.7169 12.2603 14.7004 12.3593C14.6989 12.3724 14.6614 12.3698 14.6542 12.3315C14.6242 12.1523 14.6227 12.1526 14.4904 12.2486C14.4799 12.2565 14.4615 12.2636 14.4514 12.2603C14.4319 12.2516 14.424 12.2321 14.4356 12.21C14.4795 12.1245 14.5207 12.0368 14.5699 11.9539C14.6029 11.8991 14.643 11.9449 14.6752 11.9606C14.7461 11.9955 14.8335 12.0154 14.8402 12.1298Z" fill="#13A248"/>
<path fill-rule="evenodd" clip-rule="evenodd" d="M15.1762 12.4217C15.1072 12.4495 15.0739 12.3974 15.0296 12.3786C14.9996 12.3659 14.9715 12.3539 14.9512 12.3872C14.9291 12.4225 14.9512 12.4427 14.9816 12.4585C15.0049 12.4701 15.0296 12.4791 15.0469 12.4975C15.0772 12.5294 15.1725 12.5207 15.1339 12.5886C15.1035 12.6426 15.0525 12.5796 15.0187 12.5597C14.9606 12.5241 14.8455 12.5046 14.8579 12.4427C14.877 12.3434 14.9336 12.2354 15.009 12.1671C15.0694 12.1124 15.1361 12.2159 15.204 12.2417C15.2332 12.2526 15.2831 12.2624 15.2745 12.3085C15.2662 12.3561 15.231 12.3284 15.204 12.322C15.1406 12.3074 15.0791 12.2001 15.0292 12.2744C14.9992 12.3186 15.1226 12.337 15.1616 12.3857C15.1676 12.3929 15.1691 12.4026 15.1762 12.4217ZM15.9844 12.952C15.9956 13.0397 15.96 13.0994 15.8681 13.0844C15.7729 13.0686 15.7005 13.0105 15.684 12.9062C15.6825 12.8957 15.6952 12.8744 15.7057 12.8714C15.7118 12.8694 15.7182 12.8688 15.7245 12.8695C15.7308 12.8703 15.7369 12.8724 15.7423 12.8758C15.7477 12.8791 15.7523 12.8836 15.7557 12.889C15.7592 12.8943 15.7615 12.9003 15.7624 12.9066C15.7744 12.9782 15.8119 13.0101 15.8872 13.0116C15.9019 12.8942 15.69 12.8406 15.8119 12.7187C15.873 12.6576 15.9476 12.7082 16.0009 12.7574C16.05 12.802 16.11 12.8511 16.0204 12.9149C16.0076 12.9081 15.9904 12.8972 15.981 12.9047C15.9619 12.9175 15.9806 12.9359 15.9844 12.952Z" fill="#11A147"/>
<path fill-rule="evenodd" clip-rule="evenodd" d="M13.3941 11.8347C13.3495 11.8096 13.3517 11.7856 13.3588 11.7593C13.3731 11.7034 13.3442 11.6742 13.2932 11.6584C13.2422 11.6419 13.2028 11.6442 13.189 11.7079C13.1841 11.7364 13.1691 11.7563 13.138 11.7458C13.102 11.7327 13.12 11.7034 13.1267 11.6821C13.141 11.6329 13.1537 11.5834 13.1762 11.5366C13.1965 11.4897 13.1822 11.4038 13.2561 11.4094C13.3345 11.4151 13.4192 11.4338 13.4788 11.4987C13.5055 11.5272 13.5163 11.5763 13.4946 11.5977C13.4312 11.6629 13.4365 11.7552 13.3941 11.8347Z" fill="#0FA046"/>
<path fill-rule="evenodd" clip-rule="evenodd" d="M11.0799 11.3574C10.9588 11.4031 10.8631 11.3765 10.7698 11.3784C10.7274 11.3795 10.7236 11.3476 10.7236 11.3154C10.7261 11.2796 10.7271 11.2439 10.7266 11.2081C10.7311 11.0105 10.8013 10.9599 10.9955 11.015C11.0173 11.021 11.0379 11.0248 11.0394 11.0491C11.0394 11.0829 11.015 11.0889 10.985 11.0881C10.9808 11.0871 10.976 11.0868 10.9708 11.087C10.9126 11.1013 10.8084 11.0356 10.8065 11.1226C10.8043 11.1894 10.9179 11.1421 10.976 11.1646C10.9838 11.1684 10.9938 11.1751 11.006 11.1849C10.9693 11.2513 10.9081 11.2141 10.8609 11.222C10.8328 11.2265 10.796 11.2141 10.7919 11.2599C10.7866 11.3139 10.8241 11.3113 10.8609 11.315C10.9235 11.3225 10.9914 11.2989 11.0799 11.3574Z" fill="#0B9F43"/>
<path fill-rule="evenodd" clip-rule="evenodd" d="M10.0845 11.3862C10.0192 11.372 10.0282 11.3345 10.017 11.3082C9.9975 11.2599 9.95887 11.2599 9.9165 11.2632C9.86812 11.2677 9.84187 11.2865 9.846 11.3401C9.849 11.3664 9.8595 11.4087 9.81075 11.4027C9.76875 11.3975 9.78075 11.3566 9.7785 11.3289C9.77475 11.2835 9.77025 11.237 9.77475 11.192C9.78075 11.1417 9.73275 11.0649 9.80512 11.0469C9.87975 11.0274 9.966 11.0135 10.0436 11.0506C10.0774 11.0667 10.104 11.1061 10.0916 11.138C10.0631 11.2182 10.0856 11.2996 10.0845 11.3862Z" fill="#079D3F"/>
<path fill-rule="evenodd" clip-rule="evenodd" d="M9.29248 11.2586C9.30448 11.157 9.34911 11.0745 9.46048 11.0782C9.56736 11.0816 9.62436 11.1559 9.62436 11.2627C9.62436 11.3689 9.57486 11.442 9.46198 11.4412C9.34723 11.4405 9.30823 11.3572 9.29248 11.2586Z" fill="#15A24A"/>
<path fill-rule="evenodd" clip-rule="evenodd" d="M16.4317 13.1632C16.4212 13.2641 16.3713 13.3402 16.2562 13.3503C16.1501 13.359 16.0938 13.2982 16.0856 13.1985C16.0762 13.0976 16.1752 13.0012 16.2761 13.002C16.3646 13.0027 16.4295 13.0668 16.4317 13.1632Z" fill="#11A147"/>
<path fill-rule="evenodd" clip-rule="evenodd" d="M14.3263 11.9897C14.4111 12.058 14.3083 12.103 14.3046 12.1603C14.2341 12.1277 14.146 12.1408 14.089 12.079C14.0282 12.013 14.0395 11.9383 14.0792 11.8656C14.1231 11.7887 14.1906 11.7557 14.2735 11.785C14.3492 11.812 14.4058 11.863 14.3691 11.959C14.311 11.9695 14.2633 11.893 14.1816 11.9443C14.236 11.9695 14.3012 11.9346 14.3263 11.9897Z" fill="#0C9F43"/>
<path fill-rule="evenodd" clip-rule="evenodd" d="M12.2862 11.2176C12.2367 11.2758 12.2003 11.2533 12.1662 11.254C12.1332 11.254 12.0979 11.2266 12.057 11.2608C12.0938 11.3208 12.1827 11.2821 12.2172 11.3418C12.2123 11.3504 12.21 11.362 12.2037 11.368C12.1542 11.407 12.075 11.3125 12.0443 11.3905C12.0162 11.4576 12.09 11.4344 12.1219 11.4456C12.1579 11.4599 12.2025 11.4546 12.246 11.5034C12.1452 11.5476 12.0248 11.527 11.9832 11.4783C11.9175 11.4014 11.9637 11.2649 12.0135 11.1966C12.0724 11.116 12.18 11.1948 12.2862 11.2176Z" fill="#19A44D"/>
<path fill-rule="evenodd" clip-rule="evenodd" d="M12.9259 11.5435C12.8407 11.5345 12.744 11.4745 12.7196 11.6147C12.7189 11.6192 12.6892 11.6256 12.6802 11.6196C12.6701 11.614 12.6645 11.593 12.6664 11.581C12.6885 11.4921 12.6997 11.3968 12.7391 11.317C12.7849 11.227 12.8625 11.3031 12.9266 11.3117C13.0031 11.3218 13.0455 11.3683 13.0372 11.449C13.0297 11.5183 12.9772 11.5371 12.9259 11.5435Z" fill="#0D9F44"/>
<path fill-rule="evenodd" clip-rule="evenodd" d="M13.9399 11.7581C13.9316 11.871 13.8761 11.949 13.7632 11.9524C13.6624 11.9561 13.6057 11.8853 13.608 11.7848C13.611 11.676 13.6639 11.5973 13.7812 11.5939C13.8889 11.5901 13.9305 11.6625 13.9399 11.7581Z" fill="#0FA046"/>
<path fill-rule="evenodd" clip-rule="evenodd" d="M11.4122 11.3507C11.3998 11.3773 11.3897 11.4152 11.3541 11.4066C11.2922 11.3919 11.3199 11.3323 11.3049 11.2933C11.2592 11.2487 11.2712 11.3102 11.2569 11.3214C11.2517 11.3492 11.2644 11.3916 11.2269 11.3972C11.1808 11.4028 11.1917 11.3586 11.1928 11.3323C11.1966 11.2776 11.1973 11.2202 11.2123 11.1677C11.2254 11.1227 11.1778 11.0398 11.2674 11.0391C11.3466 11.0387 11.3293 11.1193 11.3394 11.1677C11.3499 11.2232 11.3556 11.2468 11.4009 11.1917C11.4478 11.1793 11.4576 11.2134 11.4684 11.2464C11.4744 11.2944 11.4531 11.3278 11.4122 11.3507Z" fill="#0EA044"/>
<path fill-rule="evenodd" clip-rule="evenodd" d="M15.4061 12.7281C15.4339 12.7281 15.462 12.7649 15.489 12.7334C15.5096 12.7098 15.4912 12.6865 15.4729 12.6674C15.4589 12.6531 15.4454 12.6384 15.4324 12.6231C15.3941 12.577 15.3405 12.5328 15.3934 12.466C15.4414 12.4049 15.4972 12.4199 15.5527 12.4585C15.5629 12.478 15.5595 12.4968 15.549 12.5144C15.5081 12.5785 15.5842 12.6175 15.5827 12.6723C15.5944 12.7236 15.6019 12.7754 15.5452 12.805C15.4747 12.8425 15.4204 12.808 15.3686 12.763C15.363 12.7334 15.3739 12.7188 15.4061 12.7281Z" fill="#10A146"/>
<path fill-rule="evenodd" clip-rule="evenodd" d="M14.3265 11.9902C14.2976 12.0105 14.2395 11.9449 14.2414 11.9944C14.2451 12.0821 14.2012 12.0742 14.1604 12.0484C14.1052 12.0142 14.1022 11.9557 14.1371 11.9017C14.1709 11.8489 14.2185 11.8181 14.2762 11.8612C14.3115 11.8871 14.3381 11.9261 14.3685 11.9595L14.3265 11.9902Z" fill="#ECF7F0"/>
<path fill-rule="evenodd" clip-rule="evenodd" d="M11.4369 11.2624C11.426 11.2392 11.414 11.2165 11.4009 11.1945C11.414 11.1612 11.426 11.1274 11.4418 11.0952C11.456 11.0648 11.4808 11.0479 11.5156 11.0592C11.5546 11.0723 11.5516 11.1023 11.5494 11.1338C11.5411 11.2255 11.5335 11.3173 11.5265 11.409C11.4718 11.4439 11.4579 11.412 11.4489 11.3648C11.4421 11.3307 11.4598 11.2939 11.4369 11.2624Z" fill="#17A34C"/>
<path fill-rule="evenodd" clip-rule="evenodd" d="M15.584 12.6723C15.5503 12.6378 15.5143 12.6052 15.4828 12.5685C15.446 12.525 15.4603 12.4983 15.515 12.4912C15.5942 12.5088 15.6425 12.5471 15.6193 12.6378C15.6083 12.6493 15.5965 12.6608 15.584 12.6723Z" fill="#D7EFE0"/>
<path fill-rule="evenodd" clip-rule="evenodd" d="M15.6194 12.6382C15.583 12.591 15.5733 12.5235 15.5151 12.4916L15.5541 12.459C15.6171 12.5036 15.7323 12.5291 15.6194 12.6382Z" fill="#2BAB5B"/>
<path fill-rule="evenodd" clip-rule="evenodd" d="M15.9842 12.9514C15.9793 12.9484 15.9729 12.9469 15.9707 12.9428C15.9407 12.8873 15.8413 12.8374 15.8751 12.7883C15.9174 12.729 15.9617 12.7991 15.9849 12.8498C15.9954 12.8711 16.0082 12.8921 16.0202 12.9143C16.0077 12.9268 15.9957 12.9391 15.9842 12.9514Z" fill="#E6F5EC"/>
<path fill-rule="evenodd" clip-rule="evenodd" d="M15.4061 12.7282C15.3946 12.74 15.3821 12.7517 15.3686 12.7635C15.3529 12.7522 15.3311 12.7444 15.321 12.7282C15.3019 12.6919 15.2471 12.6435 15.3105 12.615C15.3637 12.5895 15.3637 12.6574 15.381 12.6904C15.3881 12.7042 15.3971 12.7159 15.4061 12.7282Z" fill="#29AA59"/>
<path fill-rule="evenodd" clip-rule="evenodd" d="M11.4367 11.2627C11.4915 11.2841 11.4626 11.3298 11.4634 11.3639C11.4664 11.4108 11.4829 11.4266 11.5267 11.4101C11.4352 11.4986 11.4469 11.3804 11.4116 11.3542C11.421 11.3231 11.4281 11.2927 11.4367 11.2627Z" fill="#DDF1E4"/>
<path fill-rule="evenodd" clip-rule="evenodd" d="M11.2549 11.3219V11.2012C11.3066 11.2177 11.3081 11.254 11.3029 11.2938L11.2549 11.3219Z" fill="#6FC690"/>
<path fill-rule="evenodd" clip-rule="evenodd" d="M10.3203 11.1985C10.3256 11.1437 10.2993 11.0725 10.3927 11.0785C10.4609 11.0826 10.5104 11.11 10.5142 11.188C10.5179 11.272 10.4688 11.3061 10.3912 11.3117C10.2926 11.3196 10.3327 11.242 10.3203 11.1985Z" fill="#F5FBF7"/>
<path fill-rule="evenodd" clip-rule="evenodd" d="M14.6451 12.0236C14.6841 12.0449 14.7437 12.0491 14.7565 12.1068C14.7629 12.1368 14.737 12.1567 14.7104 12.1481C14.6609 12.1331 14.5952 12.1323 14.5885 12.0626C14.5866 12.0423 14.6084 12.0168 14.6451 12.0236Z" fill="#EFF8F3"/>
<path fill-rule="evenodd" clip-rule="evenodd" d="M13.429 11.5621C13.4188 11.6011 13.3915 11.6146 13.36 11.603C13.3176 11.5876 13.2493 11.6045 13.2486 11.5302C13.2471 11.4916 13.2733 11.48 13.3086 11.4916C13.3551 11.5066 13.4113 11.5047 13.429 11.5621Z" fill="#DEF2E5"/>
<path fill-rule="evenodd" clip-rule="evenodd" d="M9.92548 11.1006C9.96223 11.1051 10.0204 11.0856 10.0166 11.1482C10.0129 11.203 9.95736 11.1943 9.91761 11.1951C9.88573 11.1962 9.83998 11.2127 9.83698 11.1553C9.83473 11.0871 9.88798 11.1085 9.92548 11.1006Z" fill="#F3FAF5"/>
<path fill-rule="evenodd" clip-rule="evenodd" d="M9.45125 11.1523C9.51913 11.1568 9.55288 11.1973 9.5555 11.2611C9.55925 11.3181 9.53113 11.3668 9.47263 11.3721C9.40513 11.3785 9.37475 11.3271 9.371 11.2645C9.36725 11.2067 9.38975 11.1647 9.45125 11.1523Z" fill="#F3FAF6"/>
<path fill-rule="evenodd" clip-rule="evenodd" d="M16.3571 13.1762C16.3473 13.2385 16.3098 13.2824 16.2374 13.2824C16.1793 13.2816 16.1576 13.2392 16.1636 13.1879C16.1692 13.1181 16.2108 13.0731 16.2817 13.0742C16.3376 13.0757 16.3593 13.1159 16.3571 13.1762Z" fill="#F9FCFA"/>
<path fill-rule="evenodd" clip-rule="evenodd" d="M12.8374 11.3591C12.8752 11.3824 12.9514 11.3584 12.9622 11.4334C12.9656 11.4619 12.9341 11.4765 12.909 11.4709C12.8599 11.46 12.7912 11.4776 12.7852 11.3985C12.7841 11.3741 12.795 11.3479 12.8374 11.3591Z" fill="#E7F5EC"/>
<path fill-rule="evenodd" clip-rule="evenodd" d="M13.865 11.7678C13.8579 11.8327 13.826 11.878 13.7604 11.878C13.6959 11.8788 13.673 11.8338 13.676 11.7745C13.6813 11.7093 13.7184 11.6658 13.7818 11.6632C13.8448 11.6609 13.865 11.7112 13.865 11.7678Z" fill="#F5FBF7"/>
</g>
<defs>
<clipPath id="clip0_111_2327">
<rect width="24" height="24" fill="white" transform="translate(0.732422 0.27832)"/>
</clipPath>
</defs>
</svg>
