<svg width="21" height="21" viewBox="0 0 21 21" fill="none" xmlns="http://www.w3.org/2000/svg">
<g clip-path="url(#clip0_111_2013)">
<path d="M20.6623 19.6301H3.99561" stroke="#979797" stroke-width="1.5" stroke-linecap="round"/>
<path d="M19.829 19.63V6.29671C19.829 4.72505 19.829 3.94005 19.3407 3.45171C18.8524 2.96338 18.0674 2.96338 16.4957 2.96338H14.829C13.2574 2.96338 12.4724 2.96338 11.984 3.45171C11.5907 3.84421 11.514 4.43005 11.499 5.46338" stroke="#979797" stroke-width="1.5"/>
<path d="M14.8291 19.63V8.79671C14.8291 7.22505 14.8291 6.44005 14.3408 5.95171C13.8524 5.46338 13.0674 5.46338 11.4958 5.46338H8.16243C6.59077 5.46338 5.80577 5.46338 5.31743 5.95171C4.8291 6.44005 4.8291 7.22505 4.8291 8.79671V19.63" stroke="#979797" stroke-width="1.5"/>
<path d="M9.8291 19.63V17.13M7.3291 7.96338H12.3291M7.3291 10.4634H12.3291M7.3291 12.9634H12.3291" stroke="#979797" stroke-width="1.5" stroke-linecap="round"/>
</g>
<defs>
<clipPath id="clip0_111_2013">
<rect width="20" height="20" fill="white" transform="translate(0.662109 0.5)"/>
</clipPath>
</defs>
</svg>
