<svg width="37" height="37" viewBox="0 0 37 37" fill="none" xmlns="http://www.w3.org/2000/svg">
<path d="M12.3421 31.6738V30.1854C12.3421 29.396 12.6557 28.6388 13.2139 28.0806C13.7721 27.5224 14.5293 27.2088 15.3187 27.2088H21.272C22.0615 27.2088 22.8186 27.5224 23.3769 28.0806C23.9351 28.6388 24.2487 29.396 24.2487 30.1854V31.6738M25.737 15.3021H28.7137C29.5032 15.3021 30.2603 15.6157 30.8185 16.174C31.3768 16.7322 31.6904 17.4893 31.6904 18.2788V19.7671M4.90039 19.7671V18.2788C4.90039 17.4893 5.214 16.7322 5.77224 16.174C6.33047 15.6157 7.08759 15.3021 7.87705 15.3021H10.8537M15.3187 19.7671C15.3187 20.5566 15.6323 21.3137 16.1906 21.8719C16.7488 22.4302 17.5059 22.7438 18.2954 22.7438C19.0848 22.7438 19.842 22.4302 20.4002 21.8719C20.9584 21.3137 21.272 20.5566 21.272 19.7671C21.272 18.9777 20.9584 18.2205 20.4002 17.6623C19.842 17.1041 19.0848 16.7904 18.2954 16.7904C17.5059 16.7904 16.7488 17.1041 16.1906 17.6623C15.6323 18.2205 15.3187 18.9777 15.3187 19.7671ZM22.7604 7.86045C22.7604 8.64991 23.074 9.40704 23.6322 9.96527C24.1905 10.5235 24.9476 10.8371 25.737 10.8371C26.5265 10.8371 27.2836 10.5235 27.8419 9.96527C28.4001 9.40704 28.7137 8.64991 28.7137 7.86045C28.7137 7.07099 28.4001 6.31387 27.8419 5.75563C27.2836 5.1974 26.5265 4.88379 25.737 4.88379C24.9476 4.88379 24.1905 5.1974 23.6322 5.75563C23.074 6.31387 22.7604 7.07099 22.7604 7.86045ZM7.87705 7.86045C7.87705 8.64991 8.19067 9.40704 8.7489 9.96527C9.30713 10.5235 10.0643 10.8371 10.8537 10.8371C11.6432 10.8371 12.4003 10.5235 12.9585 9.96527C13.5168 9.40704 13.8304 8.64991 13.8304 7.86045C13.8304 7.07099 13.5168 6.31387 12.9585 5.75563C12.4003 5.1974 11.6432 4.88379 10.8537 4.88379C10.0643 4.88379 9.30713 5.1974 8.7489 5.75563C8.19067 6.31387 7.87705 7.07099 7.87705 7.86045Z" stroke="white" stroke-width="2" stroke-linecap="round" stroke-linejoin="round"/>
</svg>
