<svg width="29" height="29" viewBox="0 0 29 29" fill="none" xmlns="http://www.w3.org/2000/svg">
<path d="M4.34668 8.44466C4.34668 7.82582 4.59251 7.23233 5.0301 6.79475C5.46768 6.35716 6.06117 6.11133 6.68001 6.11133H23.0133C23.6322 6.11133 24.2257 6.35716 24.6633 6.79475C25.1008 7.23233 25.3467 7.82582 25.3467 8.44466V20.1113C25.3467 20.7302 25.1008 21.3237 24.6633 21.7612C24.2257 22.1988 23.6322 22.4447 23.0133 22.4447H6.68001C6.06117 22.4447 5.46768 22.1988 5.0301 21.7612C4.59251 21.3237 4.34668 20.7302 4.34668 20.1113V8.44466Z" stroke="#14EFFF" stroke-width="1.8" stroke-linecap="round" stroke-linejoin="round"/>
<path d="M4.34668 8.44434L14.8467 15.4443L25.3467 8.44434" stroke="#14EFFF" stroke-width="1.8" stroke-linecap="round" stroke-linejoin="round"/>
</svg>
