<svg width="29" height="29" viewBox="0 0 29 29" fill="none" xmlns="http://www.w3.org/2000/svg">
<path d="M14.0562 13.112V13.1236M9.38949 13.112V13.1236M18.7228 13.112V13.1236M21.0562 4.94531C21.9844 4.94531 22.8746 5.31406 23.531 5.97044C24.1874 6.62682 24.5562 7.51705 24.5562 8.44531V17.7786C24.5562 18.7069 24.1874 19.5971 23.531 20.2535C22.8746 20.9099 21.9844 21.2786 21.0562 21.2786H15.2228L9.38949 24.7786V21.2786H7.05615C6.12789 21.2786 5.23766 20.9099 4.58128 20.2535C3.9249 19.5971 3.55615 18.7069 3.55615 17.7786V8.44531C3.55615 7.51705 3.9249 6.62682 4.58128 5.97044C5.23766 5.31406 6.12789 4.94531 7.05615 4.94531H21.0562Z" stroke="#14EFFF" stroke-width="1.8" stroke-linecap="round" stroke-linejoin="round"/>
</svg>
