<svg width="15" height="15" viewBox="0 0 15 15" fill="none" xmlns="http://www.w3.org/2000/svg">
<g clip-path="url(#clip0_111_1268)">
<path d="M1.14742 7.71947C1.14709 8.89116 1.45564 10.0352 2.04233 11.0436L1.09131 14.489L4.6448 13.5645C5.62766 14.0954 6.72886 14.3736 7.84792 14.3737H7.85086C11.5451 14.3737 14.5522 11.3909 14.5538 7.72471C14.5545 5.94817 13.8579 4.27762 12.5922 3.0208C11.3268 1.76408 9.64378 1.07161 7.85058 1.0708C4.15595 1.0708 1.149 4.05341 1.14747 7.71947" fill="url(#paint0_linear_111_1268)"/>
<path d="M0.908386 7.71722C0.908004 8.93108 1.22761 10.1161 1.83522 11.1606L0.850098 14.7295L4.53101 13.7718C5.54522 14.3205 6.68712 14.6098 7.84906 14.6103H7.85206C11.6788 14.6103 14.794 11.5202 14.7956 7.72273C14.7963 5.88236 14.0746 4.15176 12.7637 2.84991C11.4527 1.54822 9.70948 0.830835 7.85206 0.830078C4.02467 0.830078 0.909911 3.91971 0.908386 7.71722ZM3.1005 10.9807L2.96306 10.7642C2.3853 9.85267 2.08035 8.7993 2.08079 7.71765C2.08199 4.56126 4.67084 1.99329 7.85424 1.99329C9.39587 1.99393 10.8447 2.59024 11.9344 3.67215C13.024 4.75418 13.6237 6.19251 13.6233 7.7223C13.6219 10.8787 11.0329 13.447 7.85206 13.447H7.84977C6.81404 13.4465 5.79825 13.1705 4.91238 12.6489L4.70157 12.5249L2.51724 13.0931L3.1005 10.9807Z" fill="url(#paint1_linear_111_1268)"/>
<path d="M6.11649 4.83808C5.98652 4.55144 5.84973 4.54565 5.72613 4.54063C5.62491 4.5363 5.50921 4.53663 5.39361 4.53663C5.27791 4.53663 5.08992 4.57981 4.93101 4.75197C4.77195 4.92429 4.32373 5.34071 4.32373 6.18766C4.32373 7.03461 4.94545 7.85318 5.03212 7.96814C5.1189 8.0829 6.23236 9.87657 7.99582 10.5666C9.4614 11.14 9.75965 11.026 10.0777 10.9972C10.3959 10.9686 11.1043 10.5809 11.2488 10.1789C11.3934 9.77701 11.3934 9.43248 11.35 9.36048C11.3067 9.28875 11.191 9.24567 11.0175 9.15962C10.844 9.07357 9.99095 8.65704 9.83194 8.59959C9.67287 8.54218 9.55722 8.51353 9.44152 8.68591C9.32582 8.85801 8.99357 9.24567 8.89231 9.36048C8.79115 9.47556 8.68988 9.48988 8.51643 9.40378C8.34282 9.3174 7.78407 9.13584 7.12117 8.54942C6.6054 8.09311 6.2572 7.52962 6.15599 7.35724C6.05477 7.18514 6.14515 7.09185 6.23214 7.00607C6.3101 6.92893 6.4057 6.80504 6.49253 6.70456C6.57904 6.60402 6.60791 6.5323 6.66576 6.41749C6.72367 6.30257 6.69469 6.20204 6.65138 6.11593C6.60791 6.02982 6.27077 5.17845 6.11649 4.83808Z" fill="white"/>
</g>
<defs>
<linearGradient id="paint0_linear_111_1268" x1="674.216" y1="1342.9" x2="674.216" y2="1.0708" gradientUnits="userSpaceOnUse">
<stop stop-color="#1FAF38"/>
<stop offset="1" stop-color="#60D669"/>
</linearGradient>
<linearGradient id="paint1_linear_111_1268" x1="698.126" y1="1390.77" x2="698.126" y2="0.830078" gradientUnits="userSpaceOnUse">
<stop stop-color="#F9F9F9"/>
<stop offset="1" stop-color="white"/>
</linearGradient>
<clipPath id="clip0_111_1268">
<rect width="13.8915" height="14" fill="white" transform="translate(0.850098 0.830078)"/>
</clipPath>
</defs>
</svg>
